<?xml version="1.0" encoding="utf-8"?>
<!-- Generator: Adobe Illustrator 20.1.0, SVG Export Plug-In . SVG Version: 6.00 Build 0)  -->
<svg version="1.1" id="Layer_1" xmlns="http://www.w3.org/2000/svg" xmlns:xlink="http://www.w3.org/1999/xlink" x="0px" y="0px"
	 viewBox="0 0 276 82.7" style="enable-background:new 0 0 276 82.7;" xml:space="preserve">
<style type="text/css">
	.st0{fill:none;}
	.st1{enable-background:new    ;}
	.st2{fill:#FFFFFF;}
</style>
<rect x="59.2" y="35.8" class="st0" width="221.3" height="54.3"/>
<g class="st1">
	<path class="st2" d="M68.4,60.7l-3.5,10.6h-4.5l11.5-33.7h5.3l11.5,33.7H84l-3.6-10.6H68.4z M79.5,57.3l-3.3-9.7
		c-0.8-2.2-1.3-4.2-1.8-6.2h-0.1c-0.5,2-1,4.1-1.7,6.1l-3.3,9.8H79.5z"/>
	<path class="st2" d="M93.3,55c0-3.1-0.1-5.6-0.2-7.9h4l0.2,4.2h0.1c1.8-3,4.7-4.7,8.6-4.7c5.9,0,10.3,5,10.3,12.3
		c0,8.7-5.3,13-11,13c-3.2,0-6-1.4-7.5-3.8h-0.1v13.2h-4.4V55z M97.6,61.5c0,0.7,0.1,1.3,0.2,1.8c0.8,3.1,3.5,5.2,6.6,5.2
		c4.7,0,7.4-3.8,7.4-9.4c0-4.8-2.5-9-7.2-9c-3,0-5.8,2.2-6.7,5.5c-0.2,0.5-0.3,1.2-0.3,1.8V61.5z"/>
	<path class="st2" d="M121.7,55c0-3.1-0.1-5.6-0.2-7.9h4l0.2,4.2h0.1c1.8-3,4.7-4.7,8.6-4.7c5.9,0,10.3,5,10.3,12.3
		c0,8.7-5.3,13-11,13c-3.2,0-6-1.4-7.5-3.8h-0.1v13.2h-4.4V55z M126.1,61.5c0,0.7,0.1,1.3,0.2,1.8c0.8,3.1,3.5,5.2,6.6,5.2
		c4.7,0,7.4-3.8,7.4-9.4c0-4.8-2.5-9-7.2-9c-3,0-5.8,2.2-6.7,5.5c-0.2,0.5-0.3,1.2-0.3,1.8V61.5z"/>
	<path class="st2" d="M160.3,66c2,1.2,4.8,2.2,7.8,2.2c4.5,0,7-2.3,7-5.8c0-3.2-1.8-5-6.3-6.7c-5.5-2-8.9-4.8-8.9-9.6
		c0-5.3,4.4-9.2,10.9-9.2c3.5,0,6,0.8,7.5,1.6l-1.2,3.6c-1.1-0.6-3.4-1.6-6.4-1.6c-4.6,0-6.4,2.7-6.4,5.1c0,3.2,2.1,4.7,6.7,6.5
		c5.7,2.2,8.6,5,8.6,9.9c0,5.2-3.8,9.7-11.8,9.7c-3.3,0-6.8-1-8.6-2.2L160.3,66z"/>
	<path class="st2" d="M190.6,40.2v6.9h6.3v3.4h-6.3v13.1c0,3,0.9,4.7,3.3,4.7c1.1,0,2-0.1,2.5-0.3l0.2,3.3c-0.9,0.3-2.2,0.6-3.9,0.6
		c-2,0-3.7-0.7-4.8-1.8c-1.3-1.3-1.7-3.5-1.7-6.3V50.5h-3.8v-3.4h3.8v-5.8L190.6,40.2z"/>
	<path class="st2" d="M223.4,59c0,9-6.2,12.9-12.1,12.9c-6.6,0-11.6-4.8-11.6-12.5c0-8.1,5.3-12.9,12-12.9
		C218.7,46.6,223.4,51.6,223.4,59z M204.2,59.3c0,5.3,3,9.3,7.4,9.3c4.2,0,7.4-4,7.4-9.4c0-4.1-2.1-9.3-7.3-9.3
		S204.2,54.7,204.2,59.3z"/>
	<path class="st2" d="M229,54.7c0-2.8,0-5.3-0.2-7.6h3.9l0.1,4.8h0.2c1.1-3.3,3.8-5.3,6.7-5.3c0.5,0,0.9,0,1.3,0.2v4.2
		c-0.4-0.1-0.9-0.2-1.5-0.2c-3.1,0-5.3,2.4-5.9,5.7c-0.1,0.6-0.2,1.3-0.2,2.1v12.9H229V54.7z"/>
	<path class="st2" d="M247.3,60c0.1,6,3.9,8.4,8.3,8.4c3.2,0,5.1-0.5,6.7-1.3l0.8,3.2c-1.6,0.7-4.2,1.5-8.1,1.5
		c-7.5,0-11.9-4.9-11.9-12.2c0-7.3,4.3-13.1,11.4-13.1c7.9,0,10,7,10,11.4c0,0.9-0.1,1.6-0.1,2H247.3z M260.2,56.9
		c0-2.8-1.1-7.2-6.1-7.2c-4.5,0-6.4,4.1-6.8,7.2H260.2z"/>
</g>
<rect x="59.2" y="3.8" class="st0" width="218.8" height="21.9"/>
<g class="st1">
	<path class="st2" d="M61.5,5.2C63.1,4.9,65,4.7,67,4.7c3.8,0,6.4,0.9,8.2,2.5c1.8,1.7,2.8,4,2.8,7.3c0,3.3-1,6-2.9,7.9
		c-1.9,1.9-5,2.9-8.9,2.9c-1.9,0-3.4-0.1-4.7-0.2V5.2z M64.1,23c0.7,0.1,1.6,0.2,2.6,0.2c5.6,0,8.6-3.1,8.6-8.6
		c0-4.8-2.7-7.8-8.2-7.8c-1.4,0-2.4,0.1-3.1,0.3V23z"/>
	<path class="st2" d="M94.6,17.7c0,5.4-3.7,7.7-7.2,7.7c-3.9,0-7-2.9-7-7.5c0-4.9,3.2-7.7,7.2-7.7C91.8,10.3,94.6,13.3,94.6,17.7z
		 M83.1,17.9c0,3.2,1.8,5.6,4.4,5.6c2.5,0,4.4-2.4,4.4-5.6c0-2.5-1.2-5.6-4.4-5.6C84.5,12.2,83.1,15.1,83.1,17.9z"/>
	<path class="st2" d="M98.8,10.6l1.9,7.4c0.4,1.6,0.8,3.1,1.1,4.6h0.1c0.3-1.5,0.8-3,1.3-4.6l2.4-7.4h2.2l2.2,7.3
		c0.5,1.7,1,3.3,1.3,4.7h0.1c0.2-1.5,0.6-3,1.1-4.7l2.1-7.3h2.6l-4.7,14.5h-2.4l-2.2-6.9c-0.5-1.6-0.9-3.1-1.3-4.8h-0.1
		c-0.4,1.7-0.8,3.2-1.3,4.8l-2.3,6.9h-2.4l-4.4-14.5H98.8z"/>
	<path class="st2" d="M119.8,14.5c0-1.5,0-2.7-0.1-3.9h2.3l0.1,2.4h0.1c0.7-1.4,2.4-2.7,4.8-2.7c2,0,5.1,1.2,5.1,6.2v8.7h-2.6v-8.4
		c0-2.3-0.9-4.3-3.4-4.3c-1.7,0-3.1,1.2-3.5,2.7c-0.1,0.3-0.2,0.8-0.2,1.2v8.7h-2.6V14.5z"/>
	<path class="st2" d="M136.5,3.8h2.6v21.3h-2.6V3.8z"/>
	<path class="st2" d="M156.7,17.7c0,5.4-3.7,7.7-7.2,7.7c-3.9,0-7-2.9-7-7.5c0-4.9,3.2-7.7,7.2-7.7
		C153.9,10.3,156.7,13.3,156.7,17.7z M145.2,17.9c0,3.2,1.8,5.6,4.4,5.6c2.5,0,4.4-2.4,4.4-5.6c0-2.5-1.2-5.6-4.4-5.6
		C146.5,12.2,145.2,15.1,145.2,17.9z"/>
	<path class="st2" d="M168.1,25.1l-0.2-1.8h-0.1c-0.8,1.1-2.4,2.2-4.4,2.2c-2.9,0-4.4-2.1-4.4-4.2c0-3.5,3.1-5.4,8.7-5.4v-0.3
		c0-1.2-0.3-3.4-3.3-3.4c-1.3,0-2.8,0.4-3.8,1.1l-0.6-1.7c1.2-0.8,2.9-1.3,4.8-1.3c4.4,0,5.5,3,5.5,5.9v5.4c0,1.3,0.1,2.5,0.2,3.5
		H168.1z M167.7,17.7c-2.9-0.1-6.2,0.5-6.2,3.3c0,1.7,1.1,2.5,2.5,2.5c1.9,0,3.1-1.2,3.5-2.4c0.1-0.3,0.2-0.6,0.2-0.8V17.7z"/>
	<path class="st2" d="M187,3.8v17.5c0,1.3,0,2.8,0.1,3.8h-2.4l-0.1-2.5h-0.1c-0.8,1.6-2.6,2.8-5,2.8c-3.5,0-6.2-3-6.2-7.4
		c0-4.8,3-7.8,6.5-7.8c2.2,0,3.7,1,4.4,2.2h0.1V3.8H187z M184.4,16.5c0-0.3,0-0.8-0.1-1.1c-0.4-1.7-1.8-3.1-3.8-3.1
		c-2.7,0-4.3,2.4-4.3,5.6c0,2.9,1.4,5.4,4.3,5.4c1.8,0,3.4-1.2,3.9-3.2c0.1-0.4,0.1-0.7,0.1-1.1V16.5z"/>
	<path class="st2" d="M210.9,17.7c0,5.4-3.7,7.7-7.2,7.7c-3.9,0-7-2.9-7-7.5c0-4.9,3.2-7.7,7.2-7.7
		C208.1,10.3,210.9,13.3,210.9,17.7z M199.4,17.9c0,3.2,1.8,5.6,4.4,5.6c2.5,0,4.4-2.4,4.4-5.6c0-2.5-1.2-5.6-4.4-5.6
		C200.7,12.2,199.4,15.1,199.4,17.9z"/>
	<path class="st2" d="M214.2,14.5c0-1.5,0-2.7-0.1-3.9h2.3l0.1,2.4h0.1c0.7-1.4,2.4-2.7,4.8-2.7c2,0,5.1,1.2,5.1,6.2v8.7H224v-8.4
		c0-2.3-0.9-4.3-3.4-4.3c-1.7,0-3.1,1.2-3.5,2.7c-0.1,0.3-0.2,0.8-0.2,1.2v8.7h-2.6V14.5z"/>
	<path class="st2" d="M240.4,6.4v4.2h3.8v2h-3.8v7.8c0,1.8,0.5,2.8,2,2.8c0.7,0,1.2-0.1,1.5-0.2l0.1,2c-0.5,0.2-1.3,0.4-2.3,0.4
		c-1.2,0-2.2-0.4-2.9-1.1c-0.8-0.8-1-2.1-1-3.8v-7.9h-2.3v-2h2.3V7.1L240.4,6.4z"/>
	<path class="st2" d="M247.2,3.8h2.6v9.1h0.1c0.4-0.8,1.1-1.4,1.9-1.9c0.8-0.5,1.7-0.8,2.7-0.8c2,0,5.1,1.2,5.1,6.2v8.6h-2.6v-8.3
		c0-2.3-0.9-4.3-3.4-4.3c-1.7,0-3.1,1.2-3.5,2.6c-0.2,0.4-0.2,0.8-0.2,1.3v8.8h-2.6V3.8z"/>
	<path class="st2" d="M265.3,18.3c0.1,3.6,2.3,5,5,5c1.9,0,3-0.3,4-0.8l0.5,1.9c-0.9,0.4-2.5,0.9-4.8,0.9c-4.5,0-7.1-2.9-7.1-7.3
		s2.6-7.8,6.8-7.8c4.7,0,6,4.2,6,6.8c0,0.5-0.1,1-0.1,1.2H265.3z M273,16.4c0-1.7-0.7-4.3-3.7-4.3c-2.7,0-3.8,2.5-4,4.3H273z"/>
</g>
<g>
	<path class="st2" d="M41.2,40.9c-0.1-7.5,6.1-11.1,6.4-11.3c-3.5-5.1-8.9-5.8-10.8-5.9c-4.6-0.5-9,2.7-11.3,2.7s-5.9-2.6-9.7-2.6
		c-5,0.1-9.6,2.9-12.2,7.4c-5.2,9-1.3,22.4,3.7,29.8c2.5,3.6,5.4,7.6,9.3,7.5c3.7-0.1,5.2-2.4,9.7-2.4s5.8,2.4,9.8,2.3
		s6.6-3.7,9-7.3c2.9-4.2,4-8.2,4.1-8.4C49.1,52.8,41.3,49.8,41.2,40.9z M33.8,18.9c2.1-2.5,3.5-6,3.1-9.4c-3,0.1-6.6,2-8.7,4.5
		c-1.9,2.2-3.6,5.7-3.1,9.1C28.3,23.4,31.7,21.4,33.8,18.9z"/>
</g>
</svg>
