<?xml version="1.0" encoding="utf-8"?>
<!-- Generator: Adobe Illustrator 20.1.0, SVG Export Plug-In . SVG Version: 6.00 Build 0)  -->
<svg version="1.1" id="Layer_1" xmlns="http://www.w3.org/2000/svg" xmlns:xlink="http://www.w3.org/1999/xlink" x="0px" y="0px"
	 viewBox="0 0 276 82.7" style="enable-background:new 0 0 276 82.7;" xml:space="preserve">
<style type="text/css">
	.st0{fill:#5CDADD;}
	.st1{fill:#BDECC4;}
	.st2{fill:#DC68A1;}
	.st3{fill:#FFCA96;}
	.st4{fill:#282828;}
</style>
<polygon class="st0" points="0,12.2 0,39.9 0,68.7 29.7,39.9 "/>
<polygon class="st1" points="37.5,32.1 25.7,25.4 0,12.2 29.7,39.9 "/>
<polygon class="st2" points="0,68.7 0,68.7 25.7,54.5 37.5,47.8 29.7,39.9 "/>
<path class="st3" d="M37.5,32.1l-7.7,7.8l7.7,7.8l12-6.9c0.7-0.4,0.7-1.3,0-1.7L37.5,32.1z"/>
<g>
	<path class="st4" d="M191.4,67.3c-0.4,0.4-1.2,0.8-1.6,0.8c-1.6,0.8-3.2,0.8-4.4,0.8c-1.6,0-4,0-6.5-2c-3.2-2.4-4.9-6.5-4.9-10.1
		c0-7.3,6.1-10.9,10.9-10.9c1.6,0,3.6,0.4,4.9,1.2c2.4,1.6,2.8,3.6,3.2,4.9l-11.3,4.4l-3.6,0.4c1.2,6.1,5.3,9.7,9.7,9.7
		c2.4,0,4-0.8,5.7-1.6L191.4,67.3z M187,53.2c0.8-0.4,1.2-0.8,1.2-1.2c0-2-2-4-4.9-4c-2,0-5.3,1.6-5.3,6.5c0,0.8,0,1.6,0,2.4
		L187,53.2"/>
	<path class="st4" d="M173.3,68.1h-8.5c1.2-1.2,1.2-1.6,1.2-2.4V58c0-3.6,0-8.9,0-13.7c0-2.4,0.4-5.3,0.4-7.7h-3.6l3.6-1.6h6.9
		c-1.6,0.8-2,1.2-2,2.8c-0.4,3.6-0.4,9.3-0.4,16.2v10.9c0,2,0.4,2,2,2.4c0.8,0,1.6,0,2.4,0.4L173.3,68.1"/>
	<path class="st4" d="M157.5,48.3c1.2,0.8,3.2,2.8,3.2,6.5c0,3.6-2,5.3-4,6.9c-0.8,0.8-1.2,1.2-1.2,2.4c0,1.2,0.8,1.6,1.2,2l1.6,1.2
		c2,1.6,4,3.2,4,6.5c0,4.4-4.4,8.9-12.5,8.9c-6.9,0-10.1-3.2-10.1-6.9c0-1.6,0.8-4,3.6-5.7c2.8-1.6,6.9-2,8.9-2
		c-0.8-0.8-1.6-1.6-1.6-3.2c0-0.8,0.4-1.2,0.4-2c-0.4,0-1.2,0-1.6,0c-4.9,0-7.7-3.6-7.7-7.3c0-2,0.8-4.4,2.8-6.5
		c2.8-2,6.1-2.4,8.5-2.4h9.7l-3.2,1.6H157.5L157.5,48.3z M154.2,69.3c-0.4,0-0.8,0-1.2,0c-0.4,0-2.8,0-4.9,0.8c-1.2,0.4-4,1.6-4,4.9
		s3.2,5.7,8.5,5.7c4.4,0,6.9-2,6.9-5.3C159.5,73.4,157.9,72.2,154.2,69.3 M155.5,60.4c1.2-1.2,1.2-2.4,1.2-3.6c0-3.2-2-8.9-6.1-8.9
		c-1.2,0-2.4,0.8-3.2,1.6c-0.8,0.8-1.2,2.4-1.2,3.6c0,3.2,2,8.5,6.1,8.5C153.4,62.1,155.1,61.3,155.5,60.4"/>
	<path class="st4" d="M128.4,68.9c-7.7,0-11.7-6.1-11.7-11.3c0-6.1,5.3-11.3,12.1-11.3c6.9,0,11.3,5.3,11.3,11.3
		C140.5,62.9,136,68.9,128.4,68.9 M134.4,64.9c1.2-1.6,1.2-3.2,1.2-5.3c0-4-2-12.1-7.7-12.1c-1.6,0-3.2,0.8-4.4,1.6
		c-2,1.6-2,3.6-2,5.7c0,4.9,2.4,12.5,8.1,12.5C131.2,67.3,133.2,66.5,134.4,64.9"/>
	<path class="st4" d="M103.3,68.9c-7.7,0-11.7-6.1-11.7-11.3c0-6.1,5.3-11.3,12.1-11.3S115,51.5,115,57.6
		C115,62.9,111,68.9,103.3,68.9 M109,64.9c1.2-1.6,1.6-3.2,1.6-5.3c0-4-2-12.1-7.7-12.1c-1.6,0-3.2,0.8-4.4,1.6c-2,1.6-2,3.6-2,5.7
		c0,4.9,2.4,12.5,8.1,12.5C106.1,67.3,108.1,66.5,109,64.9"/>
	<path class="st4" d="M88.7,67.3l-6.5,1.2c-2.4,0.4-4.9,0.8-7.3,0.8c-12.1,0-17-8.9-17-16.2c0-8.5,6.5-16.6,17.8-16.6
		c2.4,0,4.9,0.4,6.9,0.8c3.2,0.8,4.9,2,5.7,2.8l-3.6,3.6l-1.6,0.4l1.2-1.6c-1.6-1.6-4.4-4-9.3-4c-6.9,0-12.1,5.3-12.1,12.9
		c0,8.5,6.1,16.2,15.8,16.2c2.8,0,4.4-0.4,5.7-1.2v-7.3l-6.9,0.4l3.6-2h9.3l-1.2,1.2c-0.4,0.4-0.4,0.4-0.4,0.8c0,0.4,0,1.6,0,2V67.3
		"/>
</g>
<g>
	<path class="st4" d="M206.3,54.2c0-2.8-0.1-5-0.2-7.1h3.6l0.2,3.7h0.1c1.6-2.7,4.2-4.2,7.7-4.2c5.3,0,9.2,4.5,9.2,11.1
		c0,7.8-4.8,11.7-9.9,11.7c-2.9,0-5.4-1.3-6.7-3.4h-0.1v11.8h-3.9V54.2z M210.2,60c0,0.6,0.1,1.1,0.2,1.6c0.7,2.7,3.1,4.6,5.9,4.6
		c4.2,0,6.6-3.4,6.6-8.4c0-4.4-2.3-8.1-6.5-8.1c-2.7,0-5.2,1.9-6,4.9c-0.1,0.5-0.3,1.1-0.3,1.6V60z"/>
	<path class="st4" d="M230.1,37h4v31.9h-4V37z"/>
	<path class="st4" d="M250.9,68.9l-0.3-2.7h-0.1c-1.2,1.7-3.6,3.2-6.7,3.2c-4.4,0-6.7-3.1-6.7-6.3c0-5.3,4.7-8.1,13.1-8.1v-0.5
		c0-1.8-0.5-5-4.9-5c-2,0-4.1,0.6-5.7,1.6l-0.9-2.6c1.8-1.2,4.4-1.9,7.2-1.9c6.7,0,8.3,4.5,8.3,8.9v8.1c0,1.9,0.1,3.7,0.4,5.2H250.9
		z M250.4,57.8c-4.3-0.1-9.2,0.7-9.2,4.9c0,2.6,1.7,3.8,3.7,3.8c2.8,0,4.6-1.8,5.3-3.6c0.1-0.4,0.2-0.9,0.2-1.3V57.8z"/>
	<path class="st4" d="M259.8,47.1l4.8,12.9c0.5,1.4,1,3.1,1.4,4.5h0.1c0.4-1.3,0.9-3,1.4-4.5l4.3-12.8h4.2l-5.9,15.5
		c-2.8,7.5-4.8,11.3-7.5,13.6c-1.9,1.7-3.9,2.4-4.9,2.6l-1-3.3c1-0.3,2.3-0.9,3.5-1.9c1.1-0.9,2.4-2.4,3.3-4.4
		c0.2-0.4,0.3-0.7,0.3-0.9c0-0.2-0.1-0.5-0.3-1l-8.1-20.1H259.8z"/>
</g>
<g>
	<path class="st4" d="M74.9,24.2c-1.2,0.4-3.5,1.1-6.2,1.1c-3.1,0-5.6-0.8-7.6-2.7c-1.7-1.7-2.8-4.4-2.8-7.5c0-6,4.2-10.4,10.9-10.4
		c2.3,0,4.2,0.5,5,0.9l-0.6,2.1c-1.1-0.5-2.4-0.9-4.5-0.9C64.2,6.9,61,9.9,61,15c0,5.1,3.1,8.2,7.8,8.2c1.7,0,2.9-0.2,3.5-0.5v-6
		h-4.1v-2.1h6.7V24.2z"/>
	<path class="st4" d="M80.4,18.3c0.1,3.6,2.3,5,5,5c1.9,0,3-0.3,4-0.8l0.5,1.9c-0.9,0.4-2.5,0.9-4.8,0.9c-4.5,0-7.1-2.9-7.1-7.3
		s2.6-7.8,6.8-7.8c4.7,0,6,4.2,6,6.8c0,0.5-0.1,1-0.1,1.2H80.4z M88.1,16.4c0-1.7-0.7-4.3-3.7-4.3c-2.7,0-3.8,2.5-4,4.3H88.1z"/>
	<path class="st4" d="M97.1,6.4v4.2h3.8v2h-3.8v7.8c0,1.8,0.5,2.8,2,2.8c0.7,0,1.2-0.1,1.5-0.2l0.1,2c-0.5,0.2-1.3,0.4-2.3,0.4
		c-1.2,0-2.2-0.4-2.9-1.1c-0.8-0.8-1-2.1-1-3.8v-7.9h-2.3v-2h2.3V7.1L97.1,6.4z"/>
	<path class="st4" d="M113.2,6.5c0,0.9-0.6,1.6-1.7,1.6c-0.9,0-1.6-0.7-1.6-1.6c0-0.9,0.7-1.6,1.6-1.6
		C112.5,4.9,113.2,5.6,113.2,6.5z M110.2,25.1V10.6h2.6v14.5H110.2z"/>
	<path class="st4" d="M120.4,6.4v4.2h3.8v2h-3.8v7.8c0,1.8,0.5,2.8,2,2.8c0.7,0,1.2-0.1,1.5-0.2l0.1,2c-0.5,0.2-1.3,0.4-2.3,0.4
		c-1.2,0-2.2-0.4-2.9-1.1c-0.8-0.8-1-2.1-1-3.8v-7.9h-2.3v-2h2.3V7.1L120.4,6.4z"/>
	<path class="st4" d="M146.7,17.7c0,5.4-3.7,7.7-7.2,7.7c-3.9,0-7-2.9-7-7.5c0-4.9,3.2-7.7,7.2-7.7
		C143.9,10.3,146.7,13.3,146.7,17.7z M135.2,17.9c0,3.2,1.8,5.6,4.4,5.6c2.5,0,4.4-2.4,4.4-5.6c0-2.5-1.2-5.6-4.4-5.6
		C136.5,12.2,135.2,15.1,135.2,17.9z"/>
	<path class="st4" d="M150,14.5c0-1.5,0-2.7-0.1-3.9h2.3l0.1,2.4h0.1c0.7-1.4,2.4-2.7,4.8-2.7c2,0,5.1,1.2,5.1,6.2v8.7h-2.6v-8.4
		c0-2.3-0.9-4.3-3.4-4.3c-1.7,0-3.1,1.2-3.5,2.7c-0.1,0.3-0.2,0.8-0.2,1.2v8.7H150V14.5z"/>
	<path class="st4" d="M173,15.3c0-1.9-0.1-3.4-0.1-4.7h2.4l0.1,2.5h0.1c1.1-1.8,2.8-2.8,5.2-2.8c3.5,0,6.2,3,6.2,7.4
		c0,5.2-3.2,7.8-6.6,7.8c-1.9,0-3.6-0.8-4.5-2.3h-0.1v7.9H173V15.3z M175.6,19.2c0,0.4,0.1,0.8,0.1,1.1c0.5,1.8,2.1,3.1,4,3.1
		c2.8,0,4.4-2.3,4.4-5.6c0-2.9-1.5-5.4-4.3-5.4c-1.8,0-3.5,1.3-4,3.3c-0.1,0.3-0.2,0.7-0.2,1.1V19.2z"/>
	<path class="st4" d="M190.1,3.8h2.6v21.3h-2.6V3.8z"/>
	<path class="st4" d="M205.2,25.1l-0.2-1.8h-0.1c-0.8,1.1-2.4,2.2-4.4,2.2c-2.9,0-4.4-2.1-4.4-4.2c0-3.5,3.1-5.4,8.7-5.4v-0.3
		c0-1.2-0.3-3.4-3.3-3.4c-1.3,0-2.8,0.4-3.8,1.1l-0.6-1.7c1.2-0.8,2.9-1.3,4.8-1.3c4.4,0,5.5,3,5.5,5.9v5.4c0,1.3,0.1,2.5,0.2,3.5
		H205.2z M204.8,17.7c-2.9-0.1-6.2,0.4-6.2,3.3c0,1.7,1.1,2.5,2.5,2.5c1.9,0,3.1-1.2,3.5-2.4c0.1-0.3,0.2-0.6,0.2-0.8V17.7z"/>
	<path class="st4" d="M212.3,10.6l3.2,8.6c0.3,1,0.7,2.1,0.9,3h0.1c0.3-0.9,0.6-2,0.9-3l2.9-8.5h2.8l-4,10.3c-1.9,5-3.2,7.5-5,9.1
		c-1.3,1.1-2.6,1.6-3.2,1.7l-0.7-2.2c0.7-0.2,1.5-0.6,2.3-1.3c0.7-0.6,1.6-1.6,2.2-2.9c0.1-0.3,0.2-0.5,0.2-0.6
		c0-0.1-0.1-0.4-0.2-0.7l-5.4-13.4H212.3z"/>
</g>
</svg>
