<?xml version="1.0" encoding="utf-8"?>
<!-- Generator: Adobe Illustrator 20.1.0, SVG Export Plug-In . SVG Version: 6.00 Build 0)  -->
<svg version="1.1" id="Layer_1" xmlns="http://www.w3.org/2000/svg" xmlns:xlink="http://www.w3.org/1999/xlink" x="0px" y="0px"
	 viewBox="0 0 223.3 370" style="enable-background:new 0 0 223.3 370;" xml:space="preserve">
<style type="text/css">
	.st0{fill:#FFFFFF;}
</style>
<path class="st0" d="M155.3,168.7v40.7H40.7v118h142.7V20.7c1.9-2.9,4.5-6.2,8-9.3c12-10.5,26.5-11.3,32-11.3c0,112.7,0,229.3,0,342
	c-1,5-3.4,13.1-10.1,19c-6.6,5.8-14.5,8.7-19.9,8.7c-91.7,0.4-91.7,0.4-193.3,0V197.3c0.1-2.4,0.7-11.5,8-19.3c7-7.5,15.6-9,18-9.3
	C69.1,168.7,112.2,168.7,155.3,168.7z"/>
</svg>
