<?xml version="1.0" encoding="utf-8"?>
<!-- Generator: Adobe Illustrator 20.1.0, SVG Export Plug-In . SVG Version: 6.00 Build 0)  -->
<svg version="1.1" id="Layer_1" xmlns="http://www.w3.org/2000/svg" xmlns:xlink="http://www.w3.org/1999/xlink" x="0px" y="0px"
	 viewBox="0 0 512 512" style="enable-background:new 0 0 512 512;" xml:space="preserve">
<style type="text/css">
	.st0{fill:#00B956;}
	.st1{fill:#00952F;}
	.st2{fill:#FFFFFF;}
	.st3{fill:#B8D1E6;}
	.st4{fill:#E6CB05;}
	.st5{fill:#F2F9FF;}
	.st6{fill:#FFD006;}
	.st7{fill:#FFD60A;}
</style>
<path class="st0" d="M512,256c0,141.4-114.6,256-256,256S0,397.4,0,256C0,114.6,114.6,0,256,0S512,114.6,512,256z"/>
<path class="st1" d="M384,147.5L128,258.4l231.6,231.6c84.3-37.4,144.6-118.9,151.6-215.3L384,147.5z"/>
<g>
	<path class="st2" d="M217.5,345.1C217.5,345.1,217.5,345.1,217.5,345.1c-0.7,0-1.2-0.6-1.2-1.2c0.1-1.8,0-3.6-0.1-5.4
		c0-0.7,0.5-1.2,1.1-1.3c0.6-0.1,1.2,0.5,1.3,1.1c0.1,1.9,0.1,3.8,0.1,5.6C218.7,344.6,218.2,345.1,217.5,345.1z"/>
	<path class="st2" d="M119.9,454.9c-0.3,0-0.7-0.2-0.9-0.4c-0.4-0.5-0.3-1.3,0.2-1.7c2.8-2.3,5.6-4.6,8.3-7.1
		c0.5-0.4,1.2-0.4,1.7,0.1c0.4,0.5,0.4,1.2-0.1,1.7c-2.8,2.4-5.6,4.8-8.4,7.1C120.4,454.8,120.2,454.9,119.9,454.9z M136.4,440.4
		c-0.3,0-0.6-0.1-0.9-0.4c-0.4-0.5-0.4-1.2,0.1-1.7c2.7-2.5,5.3-5.1,7.8-7.6c0.5-0.5,1.2-0.5,1.7,0c0.5,0.5,0.5,1.2,0,1.7
		c-2.6,2.6-5.2,5.2-7.9,7.7C137,440.3,136.7,440.4,136.4,440.4z M151.8,424.8c-0.3,0-0.6-0.1-0.8-0.3c-0.5-0.4-0.5-1.2-0.1-1.7
		c2.5-2.7,4.9-5.5,7.2-8.2c0.4-0.5,1.2-0.6,1.7-0.2s0.6,1.2,0.2,1.7c-2.3,2.8-4.7,5.6-7.2,8.3C152.4,424.7,152.1,424.8,151.8,424.8z
		 M165.8,408c-0.2,0-0.5-0.1-0.7-0.2c-0.5-0.4-0.6-1.1-0.2-1.7c2.2-3,4.3-6.1,6.2-9c0.4-0.5,1.1-0.7,1.6-0.4
		c0.6,0.4,0.7,1.1,0.4,1.6c-1.9,3-4,6-6.3,9.1C166.5,407.8,166.1,408,165.8,408z M178,389l-0.6,0c-0.7,0-1.2-0.6-1.1-1.2
		c0-0.5,0.3-0.9,0.7-1c1.5-3,2.8-6,3.9-8.9c0.2-0.6,0.9-0.9,1.5-0.7c0.6,0.2,0.9,0.9,0.7,1.5c-1,2.6-2.1,5.2-3.4,7.9
		c2.8-0.1,5.6-0.6,8.2-1.4c0.6-0.2,1.3,0.2,1.5,0.8c0.2,0.6-0.2,1.3-0.8,1.5C185.2,388.4,181.6,389,178,389z M166.6,387.2
		c-0.1,0-0.2,0-0.3,0c-3.6-1-7.1-2.5-10.4-4.3c-0.6-0.3-0.8-1-0.5-1.6c0.3-0.6,1-0.8,1.6-0.5c3.1,1.7,6.4,3,9.9,4.1
		c0.6,0.2,1,0.8,0.8,1.5C167.6,386.9,167.1,387.2,166.6,387.2z M198.1,382.7c-0.4,0-0.8-0.2-1-0.5c-0.4-0.5-0.2-1.3,0.3-1.7
		c2.9-1.9,5.5-4.3,7.9-7.1c0.4-0.5,1.2-0.6,1.7-0.1c0.5,0.4,0.6,1.2,0.1,1.7c-2.5,2.9-5.3,5.5-8.4,7.5
		C198.5,382.6,198.3,382.7,198.1,382.7z M147.6,376.8c-0.3,0-0.6-0.1-0.8-0.3c-2.8-2.5-5.3-5.3-7.5-8.3c-0.4-0.5-0.3-1.3,0.3-1.7
		s1.3-0.3,1.7,0.3c2.1,2.9,4.4,5.6,7.1,7.9c0.5,0.4,0.5,1.2,0.1,1.7C148.2,376.7,147.9,376.8,147.6,376.8z M185,368.9
		c-0.1,0-0.2,0-0.2,0c-0.6-0.1-1.1-0.8-0.9-1.4c0.6-3.2,1-6.4,1-9.4c0-0.4,0-0.8,0-1.2c0-0.7,0.5-1.2,1.2-1.2c0.8,0,1.2,0.5,1.2,1.2
		c0,0.4,0,0.9,0,1.3c0,3.2-0.3,6.5-1,9.9C186.1,368.5,185.6,368.9,185,368.9z M212.2,366.2c-0.2,0-0.4,0-0.5-0.1
		c-0.6-0.3-0.8-1-0.5-1.6c1.6-3.1,2.8-6.5,3.7-10c0.2-0.6,0.8-1,1.4-0.9c0.6,0.2,1,0.8,0.9,1.4c-0.9,3.7-2.2,7.2-3.9,10.5
		C213,366,212.6,366.2,212.2,366.2z M135,359.1c-0.5,0-0.9-0.3-1.1-0.8c-1.4-3.6-2.3-7.2-2.7-10.9c-0.1-0.7,0.4-1.2,1.1-1.3
		c0.6-0.1,1.2,0.4,1.3,1.1c0.4,3.4,1.2,6.9,2.6,10.3c0.2,0.6-0.1,1.3-0.7,1.5C135.3,359,135.2,359.1,135,359.1z M184.5,347.2
		c-0.5,0-1-0.4-1.2-0.9c-0.8-3.6-2.1-6.9-3.6-10c-0.3-0.6-0.1-1.3,0.5-1.6c0.6-0.3,1.3-0.1,1.6,0.5c1.6,3.3,2.9,6.8,3.8,10.5
		c0.2,0.6-0.2,1.3-0.9,1.4C184.7,347.2,184.6,347.2,184.5,347.2z M132.9,337.5c-0.1,0-0.2,0-0.3,0c-0.6-0.1-1.1-0.8-0.9-1.4
		c0.8-3.9,2.4-7.4,4.5-10.4c0.4-0.5,1.1-0.7,1.7-0.3c0.5,0.4,0.7,1.1,0.3,1.7c-2,2.8-3.4,6-4.1,9.6
		C133.9,337.2,133.4,337.5,132.9,337.5z M174.8,327.8c-0.3,0-0.6-0.1-0.9-0.4c-2.5-2.8-5.2-5-8.2-6.6c-0.6-0.3-0.8-1-0.5-1.6
		c0.3-0.6,1-0.8,1.6-0.5c3.2,1.7,6.2,4.1,8.8,7.1c0.4,0.5,0.4,1.2-0.1,1.7C175.3,327.7,175,327.8,174.8,327.8z M145.3,320.3
		c-0.4,0-0.8-0.2-1-0.6c-0.3-0.6-0.1-1.3,0.5-1.6c3.1-1.7,6.5-2.5,10.1-2.5c0.3,0,0.7,0,1.1,0c0.7,0,1.2,0.6,1.1,1.3
		c0,0.7-0.6,1.3-1.2,1.1c-0.3,0-0.6,0-1,0c-3.2,0-6.2,0.8-9,2.2C145.6,320.3,145.5,320.3,145.3,320.3z"/>
	<path class="st2" d="M108.6,463.7c-0.4,0-0.7-0.2-1-0.5c-0.4-0.5-0.3-1.3,0.2-1.7c1.4-1.1,2.9-2.2,4.4-3.3c0.5-0.4,1.3-0.3,1.7,0.2
		c0.4,0.5,0.3,1.3-0.2,1.7c-1.5,1.1-2.9,2.2-4.4,3.3C109.1,463.6,108.8,463.7,108.6,463.7z"/>
</g>
<polygon class="st3" points="183.3,274.2 216.6,346.9 384,147.5 "/>
<polygon class="st4" points="242,237.1 183.3,274.2 216.6,346.9 265.6,288.6 "/>
<g>
	<polygon class="st5" points="208.1,281.2 298.9,307.1 384,147.5 	"/>
	<polygon class="st5" points="128,258.4 183.3,274.2 384,147.5 	"/>
</g>
<polygon class="st6" points="216.6,346.9 208.1,281.2 259.5,295.8 "/>
<g>
	<polygon class="st7" points="128,258.4 242,237.1 183.3,274.2 	"/>
	<polygon class="st7" points="259.5,242.2 208.1,281.2 298.9,307.1 	"/>
</g>
</svg>
