<?xml version="1.0" encoding="utf-8"?>
<!-- Generator: Adobe Illustrator 20.1.0, SVG Export Plug-In . SVG Version: 6.00 Build 0)  -->
<svg version="1.1" id="Layer_1" xmlns="http://www.w3.org/2000/svg" xmlns:xlink="http://www.w3.org/1999/xlink" x="0px" y="0px"
	 width="125px" height="25px" viewBox="0 0 125 25" style="enable-background:new 0 0 125 25;" xml:space="preserve">
<style type="text/css">
	.st0{fill:#505A91;}
	.st1{fill:#374371;}
	.st2{fill:#FFFFFF;}
	.st3{fill:#D1D1D1;}
	.st4{fill:#67A2D8;}
	.st5{fill:#3C7DA6;}
	.st6{fill:#D04E3C;}
	.st7{fill:#AE3228;}
	.st8{fill:#DC4373;}
	.st9{fill:#C13467;}
	.st10{fill:#F0F1F1;}
	.st11{fill:#4162AB;}
	.st12{fill:#3655A2;}
</style>
<circle class="st0" cx="12.5" cy="12.5" r="12.5"/>
<path class="st1" d="M25,11.8l-5.9-5.9c-0.1,0-0.3-0.1-0.4-0.1c-2.5,0.4-5,0-7.4,0.7C10.1,6.9,10,8.3,9.6,9.2
	C9,10.9,9,12.8,8.3,14.4c-0.5,1.1-1.7,1.8-2.1,3c-0.1,0.5-0.1,1.2-0.3,1.7l5.9,5.9c0.2,0,0.5,0,0.7,0C19.4,25,25,19.4,25,12.5
	C25,12.3,25,12,25,11.8z"/>
<g>
	<path class="st2" d="M17.7,5.3H7.3c-1.1,0-1.9,0.9-1.9,1.9v10.5c0,1.1,0.9,1.9,1.9,1.9h5.2l0-5.1h-1.3c-0.2,0-0.3-0.1-0.3-0.3
		l0-1.6c0-0.2,0.1-0.3,0.3-0.3h1.3v-1.6c0-1.8,1.1-2.9,2.8-2.9h1.4c0.2,0,0.3,0.1,0.3,0.3v1.4c0,0.2-0.1,0.3-0.3,0.3l-0.8,0
		c-0.9,0-1.1,0.4-1.1,1.1v1.4h2c0.2,0,0.3,0.2,0.3,0.4l-0.2,1.6c0,0.2-0.2,0.3-0.3,0.3h-1.8l0,5.1h3.1c1.1,0,1.9-0.9,1.9-1.9V7.3
		C19.7,6.2,18.8,5.3,17.7,5.3L17.7,5.3z"/>
	<polygon class="st2" points="12.4,19.7 12.4,14.5 12.4,14.5 12.4,19.7 	"/>
</g>
<path class="st3" d="M17.7,5.3h-5.3v6.9h0v-1.6c0-1.8,1.1-2.9,2.8-2.9h1.4c0.2,0,0.3,0.1,0.3,0.3v1.4c0,0.2-0.1,0.3-0.3,0.3l-0.8,0
	c-0.9,0-1.1,0.4-1.1,1.1v1.4h2c0.2,0,0.3,0.2,0.3,0.4l-0.2,1.6c0,0.2-0.2,0.3-0.3,0.3h-1.8l0,5.1h3.1c1.1,0,1.9-0.9,1.9-1.9V7.3
	C19.7,6.2,18.8,5.3,17.7,5.3z"/>
<circle class="st4" cx="37.5" cy="12.5" r="12.5"/>
<path class="st5" d="M44.2,6.8c-1.3,1.1-2.6,2.1-3.7,3.5c-2.6,3.1-5.8,7.6-10.1,6.9l7.7,7.7c6.6-0.3,11.8-5.7,11.8-12.4L44.2,6.8z"
	/>
<path class="st2" d="M44.4,7.9c-0.3,0.1-0.6,0.3-1,0.3c0.4-0.4,0.7-0.8,0.8-1.3c0-0.1-0.1-0.3-0.2-0.2c-0.5,0.3-1,0.5-1.5,0.6
	c0,0-0.1,0-0.1,0c-0.1,0-0.2,0-0.3-0.1c-0.6-0.5-1.3-0.8-2-0.8c-0.3,0-0.7,0.1-1,0.2c-1,0.3-1.8,1.1-2,2.2C37,9.2,37,9.6,37,10
	c0,0,0,0.1,0,0.1c0,0-0.1,0-0.1,0c0,0,0,0,0,0c-2.2-0.2-4.2-1.3-5.6-3c-0.1-0.1-0.2-0.1-0.3,0c-0.3,0.5-0.4,1-0.4,1.6
	c0,0.8,0.3,1.6,0.9,2.2c-0.2-0.1-0.5-0.1-0.7-0.3c-0.1-0.1-0.2,0-0.2,0.1c0,1.2,0.7,2.3,1.8,2.8c0,0,0,0-0.1,0c-0.2,0-0.3,0-0.5,0
	c-0.1,0-0.2,0.1-0.2,0.2c0.4,1.1,1.3,1.9,2.4,2.1c-0.9,0.6-2,1-3.2,1l-0.4,0c-0.1,0-0.2,0.1-0.2,0.2c0,0.1,0,0.2,0.1,0.3
	c1.3,0.8,2.8,1.1,4.3,1.1c1.3,0,2.5-0.3,3.6-0.8c1-0.5,1.9-1.1,2.7-2c0.7-0.8,1.2-1.7,1.6-2.7c0.4-1,0.6-2,0.6-3v0
	c0-0.2,0.1-0.3,0.2-0.4c0.5-0.4,0.9-0.8,1.2-1.3C44.7,8,44.6,7.9,44.4,7.9L44.4,7.9z"/>
<path class="st3" d="M44.4,7.9c-0.3,0.1-0.6,0.3-1,0.3c0.4-0.4,0.7-0.8,0.8-1.3c0-0.1-0.1-0.3-0.2-0.2c-0.5,0.3-1,0.5-1.5,0.6
	c0,0-0.1,0-0.1,0c-0.1,0-0.2,0-0.3-0.1c-0.6-0.5-1.3-0.8-2-0.8c-0.3,0-0.7,0.1-1,0.2c-0.7,0.2-1.3,0.7-1.7,1.3v10
	c0.3-0.1,0.6-0.2,0.9-0.3c1-0.5,1.9-1.1,2.7-2c0.7-0.8,1.2-1.7,1.6-2.7c0.4-1,0.6-2,0.6-3v0c0-0.2,0.1-0.3,0.2-0.4
	c0.5-0.4,0.9-0.8,1.2-1.3C44.7,8,44.6,7.9,44.4,7.9z"/>
<circle class="st6" cx="62.5" cy="12.5" r="12.5"/>
<path class="st7" d="M68.2,10.5l-1.8,2.1l-3.4-3.5h-4.6l-1.9,2v4.4l9,9c4.1-1,7.4-4.1,8.7-8L68.2,10.5z"/>
<path class="st2" d="M60.4,13.4h2.2c-0.4,1.1-1.5,1.9-2.7,1.9c-1.5,0-2.8-1.2-2.8-2.7c-0.1-1.6,1.2-3,2.8-3c0.7,0,1.4,0.3,1.9,0.7
	c0.1,0.1,0.3,0.1,0.4,0l0.8-0.8c0.1-0.1,0.1-0.3,0-0.4c-0.8-0.8-1.9-1.2-3.1-1.3c-2.5,0-4.7,2-4.7,4.5c0,2.5,2,4.6,4.6,4.6
	c2.4,0,4.4-1.9,4.6-4.3c0,0,0-1.1,0-1.1h-4.1c-0.2,0-0.3,0.1-0.3,0.3v1.1C60.1,13.3,60.2,13.4,60.4,13.4L60.4,13.4z"/>
<path class="st3" d="M68.3,11.8v-1.1c0-0.1-0.1-0.3-0.3-0.3h-0.9c-0.1,0-0.3,0.1-0.3,0.3v1.1h-1.1c-0.1,0-0.3,0.1-0.3,0.3V13
	c0,0.1,0.1,0.3,0.3,0.3h1.1v1.1c0,0.1,0.1,0.3,0.3,0.3H68c0.1,0,0.3-0.1,0.3-0.3v-1.1h1.1c0.1,0,0.3-0.1,0.3-0.3v-0.9
	c0-0.1-0.1-0.3-0.3-0.3H68.3z"/>
<circle class="st8" cx="87.5" cy="12.5" r="12.5"/>
<path class="st9" d="M92.5,7.4c-0.3,0.1-0.7,0.1-0.9,0c-2.1-1.2-4.4-1.5-6.5-0.9c-3,0.9-4.2,4.2-4.2,7.3c0.6,1,1.3,2.6,1.5,3.7
	l7.3,7.3c5.1-0.9,9.2-5,10.1-10.1L92.5,7.4z"/>
<path class="st10" d="M87.5,5.4c-3.9,0-7.2,3.2-7.2,7.1s3.2,7.1,7.2,7.1c3.9,0,7.2-3.2,7.2-7.1C94.7,8.6,91.4,5.4,87.5,5.4L87.5,5.4
	z M92.2,8.7c0.8,1,1.3,2.3,1.3,3.7c-0.3-0.1-1.4-0.3-2.8-0.3c-0.4,0-0.9,0-1.4,0.1c0-0.1-0.1-0.2-0.1-0.3c-0.1-0.3-0.3-0.6-0.4-0.8
	C91,10.2,92,9,92.2,8.7L92.2,8.7z M87.5,6.5c1.5,0,2.9,0.6,4,1.5c-0.2,0.2-1.1,1.4-3.1,2.1c-0.9-1.7-2-3.2-2.2-3.5
	C86.6,6.5,87,6.5,87.5,6.5L87.5,6.5z M84.9,7.1c0.2,0.3,1.2,1.7,2.2,3.4c-2.6,0.7-4.9,0.7-5.5,0.7h-0.1C82,9.4,83.2,7.9,84.9,7.1
	L84.9,7.1z M81.5,12.5c0,0,0-0.1,0-0.1c0,0,0.1,0,0.2,0c0.8,0,3.4-0.1,6-0.9c0.2,0.3,0.3,0.6,0.5,1c-0.1,0-0.1,0-0.2,0.1
	c-3,1-4.7,3.6-4.9,4C82,15.4,81.5,14,81.5,12.5L81.5,12.5z M87.5,18.5c-1.4,0-2.7-0.5-3.7-1.3c0.2-0.3,1.4-2.6,4.7-3.7c0,0,0,0,0,0
	c0.8,2.2,1.2,4,1.3,4.5C89.1,18.4,88.3,18.5,87.5,18.5L87.5,18.5z M90.9,17.5c-0.1-0.5-0.4-2.2-1.2-4.2c0.4-0.1,0.8-0.1,1.2-0.1
	c1.3,0,2.3,0.3,2.5,0.3C93.2,15.1,92.2,16.6,90.9,17.5L90.9,17.5z"/>
<path class="st3" d="M87.5,5.4C87.5,5.4,87.5,5.4,87.5,5.4l0,1.1c0,0,0,0,0,0c1.5,0,2.9,0.6,4,1.5c-0.2,0.2-1.1,1.4-3.1,2.1
	c-0.3-0.5-0.6-1.1-0.9-1.5v3c0.1,0,0.1,0,0.2-0.1c0.2,0.3,0.3,0.6,0.5,1c-0.1,0-0.1,0-0.2,0.1c-0.2,0-0.3,0.1-0.4,0.2V14
	c0.3-0.2,0.7-0.3,1.1-0.4c0,0,0,0,0,0c0.8,2.2,1.2,4,1.3,4.5c-0.7,0.3-1.5,0.5-2.3,0.5c0,0,0,0,0,0v1.1c0,0,0,0,0,0
	c3.9,0,7.2-3.2,7.2-7.1C94.7,8.6,91.4,5.4,87.5,5.4z M89.2,11.9c-0.1-0.3-0.3-0.6-0.4-0.8C91,10.2,92,9,92.2,8.7
	c0.8,1,1.3,2.3,1.3,3.7c-0.3-0.1-1.4-0.3-2.8-0.3c-0.4,0-0.9,0-1.4,0.1C89.3,12.1,89.3,12,89.2,11.9z M90.9,17.5
	c-0.1-0.5-0.4-2.2-1.2-4.2c0.4-0.1,0.8-0.1,1.2-0.1c1.3,0,2.3,0.3,2.5,0.3C93.2,15.1,92.2,16.6,90.9,17.5z"/>
<circle class="st11" cx="112.5" cy="12.5" r="12.5"/>
<path class="st12" d="M124.3,16.7l-5.7-5.7l-4.3,0.7l-3.3-3l-4.6,0.6l-1,7.4l7.8,8.3C118.3,24.7,122.6,21.3,124.3,16.7z"/>
<path class="st2" d="M111.4,11.8c0.2-0.4,0.4-0.8,0.4-1.3c0-1.3-1.1-2.4-2.4-2.4h-3.7c-0.2,0-0.3,0.1-0.3,0.3v8.1
	c0,0.2,0.1,0.3,0.3,0.3h4.1c1.5,0,2.8-1.2,2.8-2.8C112.6,13.1,112.1,12.3,111.4,11.8L111.4,11.8z M107,9.7h2.4
	c0.4,0,0.8,0.4,0.8,0.8c0,0.4-0.4,0.8-0.8,0.8H107V9.7z M109.8,15.2H107v-2.3h2.8c0.6,0,1.1,0.5,1.1,1.1
	C111,14.7,110.4,15.2,109.8,15.2L109.8,15.2z"/>
<g>
	<path class="st3" d="M119.7,13.5c0-1.9-1.5-3.4-3.3-3.4c-1.8,0-3.3,1.5-3.3,3.4c0,1.9,1.5,3.4,3.3,3.4c1.1,0,2.1-0.6,2.8-1.5
		c0.1-0.1,0.1-0.2,0.2-0.4c0-0.1,0-0.2-0.1-0.2l-1.6,0c0,0-0.1,0-0.1,0c-0.3,0.3-0.7,0.4-1.1,0.4c-0.8,0-1.5-0.6-1.7-1.4h4.6
		C119.5,13.9,119.7,13.7,119.7,13.5L119.7,13.5L119.7,13.5L119.7,13.5z M116.3,11.7c0.6,0,1.1,0.3,1.4,0.8h-2.8
		C115.2,12,115.7,11.7,116.3,11.7L116.3,11.7z"/>
	<path class="st3" d="M117.7,9.7h-2.9c-0.1,0-0.2-0.1-0.2-0.2V8.7c0-0.1,0.1-0.2,0.2-0.2h2.9c0.1,0,0.2,0.1,0.2,0.2v0.7
		C118,9.6,117.9,9.7,117.7,9.7L117.7,9.7z"/>
</g>
</svg>
